<?xml version="1.0" standalone="no"?>
<!DOCTYPE svg PUBLIC "-//W3C//DTD SVG 20010904//EN"
 "http://www.w3.org/TR/2001/REC-SVG-20010904/DTD/svg10.dtd">
<svg version="1.0" xmlns="http://www.w3.org/2000/svg"
 width="603.000000pt" height="603.000000pt" viewBox="0 0 603.000000 603.000000"
 preserveAspectRatio="xMidYMid meet">
<metadata>
Created by potrace 1.11, written by Peter Selinger 2001-2013
</metadata>
<g transform="translate(0.000000,603.000000) scale(0.100000,-0.100000)"
fill="#000000" stroke="none">
<path d="M0 3020 l0 -2890 3015 0 3015 0 0 2890 0 2890 -3015 0 -3015 0 0
-2890z m3870 654 c98 -21 170 -47 170 -61 0 -10 -18 -59 -26 -72 -2 -1 -31 6
-66 18 -77 26 -216 51 -278 51 -77 0 -171 -28 -228 -67 -74 -51 -106 -113
-106 -208 0 -151 66 -210 361 -319 162 -59 238 -100 298 -161 63 -64 85 -123
85 -228 0 -216 -133 -346 -386 -377 -106 -13 -318 1 -414 28 l-65 19 -3 53
c-3 47 -1 52 15 45 47 -21 168 -47 262 -57 271 -29 464 69 487 248 20 162 -61
247 -331 347 -66 25 -142 55 -168 66 -164 71 -247 183 -247 333 0 184 131 320
343 357 64 12 210 4 297 -15z m-1324 -4 c258 -21 373 -96 420 -275 54 -200
-51 -409 -237 -470 -27 -9 -49 -19 -49 -21 0 -2 73 -127 163 -277 89 -149 175
-294 191 -320 l27 -48 -61 3 -61 3 -181 308 -182 307 -173 0 -173 0 0 -310 0
-310 -50 0 -50 0 0 710 0 710 153 0 c83 0 202 -4 263 -10z"/>
<path d="M2230 3276 l0 -316 123 0 c158 0 289 16 346 41 108 47 171 150 171
279 0 144 -66 239 -197 280 -56 19 -100 23 -255 27 l-188 6 0 -317z"/>
</g>
</svg>
